<svg width="110" height="20" viewBox="0 0 929 147" xmlns="http://www.w3.org/2000/svg">
  <title>LeanCloud</title>
  <path d="M29.714 5.085H.797V144H88.87v-25.326H29.715V5.084zm113.778 41.202c-28.54 0-48.195 21.357-48.195 50.085s19.278 49.518 49.33 49.518c17.954 0 30.617-5.67 40.634-17.2l-19.085-15.497c-4.158 5.67-11.53 9.828-20.98 9.828-13.796 0-21.356-6.99-21.923-19.274H188.1V94.86c0-26.27-14.554-48.573-44.605-48.573zm-.945 20.98c11.34 0 17.766 8.126 18.144 18.9h-37.42c.57-10.963 7.94-18.9 19.28-18.9h-.002zm99.225-20.98c-25.515 0-42.714 21.168-42.714 49.896s17.2 49.707 42.714 49.707c13.797 0 23.058-5.67 27.972-12.474L271.256 144h24.948V48.177h-24.948l-1.512 10.773c-4.914-6.993-14.175-12.663-27.972-12.663zm6.804 24.192c9.64 0 15.498 5.29 19.656 12.092v27.216c-4.158 6.804-10.017 11.907-19.656 11.907-12.663 0-21.546-9.828-21.546-25.515 0-15.876 8.883-25.704 21.546-25.704zm126.44-24.196c-13.23 0-22.49 5.48-27.215 12.474l-1.32-10.584h-24.95V144h27.785V83.71c3.59-5.86 9.45-11.34 18.144-11.34 9.827 0 15.686 7.37 15.686 17.954V144h27.783V88.812c0-25.893-12.664-42.525-35.91-42.525l-.003-.002zm123.42-43.66c-41.77 0-71.254 30.81-71.254 71.82 0 41.205 29.485 72.01 71.254 72.01 20.223 0 36.666-6.046 50.463-21.166l-17.958-20.98c-7.37 8.88-18.144 15.874-32.508 15.874-25.515 0-42.147-19.278-42.147-45.738s16.63-45.55 42.146-45.55c14.175 0 24.76 6.805 32.13 15.5l18.144-20.98c-13.42-13.796-28.35-20.79-50.274-20.79h.002zM590.856.36h-27.783V144h27.783V.36zm68.23 45.927c-29.107 0-50.275 21.357-50.275 50.085s21.17 49.518 50.277 49.518c29.105 0 50.652-20.79 50.652-49.518s-21.547-50.085-50.653-50.085zm0 24.192c13.04 0 22.49 11.15 22.49 25.89 0 14.552-9.45 25.325-22.49 25.325-12.853 0-22.303-10.773-22.303-25.326 0-14.74 9.45-25.893 22.302-25.893zm154.98-22.306H786.28v60.29c-3.78 5.86-9.26 11.34-18.332 11.34-9.45 0-14.742-7.18-14.742-17.576v-54.05h-27.783v55.565c0 25.704 11.907 42.147 34.587 42.147 13.797 0 22.68-5.29 27.783-12.283L789.116 144h24.948V48.177l.002-.002zM928.976.36h-27.973v56.51c-4.536-5.29-12.852-10.583-26.46-10.583-25.515 0-42.714 21.168-42.714 49.896s17.2 49.707 42.712 49.707c13.797 0 23.058-5.67 27.972-12.474L904.028 144h24.948V.36zm-47.63 70.12c9.64 0 15.5 5.29 19.657 12.095v27.216c-4.158 6.808-10.017 11.91-19.656 11.91-12.663 0-21.546-9.83-21.546-25.514 0-15.876 8.885-25.704 21.548-25.704z"
    fill="#2ea5ff" fill-rule="evenodd"></path>
</svg>